<svg width="213" height="89" viewBox="0 0 213 89" fill="none" xmlns="http://www.w3.org/2000/svg">
<path d="M75.643 14.1581C77.7804 13.302 80.3956 11.5002 82.7089 11.1307C83.6793 10.9731 84.5686 12.2661 85.36 10.7788C85.51 11.1605 85.6603 11.5424 85.8101 11.9242C86.6902 11.0863 87.0613 9.96898 88.2128 9.47973C89.1837 9.06373 91.7874 8.16308 92.7032 8.05094C93.1826 7.98572 93.2394 8.76856 93.6679 8.63437C94.3999 8.3978 95.6789 6.91718 96.6985 6.63164C97.6232 6.36936 99.3959 6.80399 100.061 6.49972C102.522 5.38549 105.041 3.44106 107.885 3.19871C108.684 3.13035 109.872 3.90373 110.106 3.83028C110.564 3.68045 110.518 2.70585 110.812 2.52224C112.31 1.58997 114.992 2.28138 116.604 2.07392C121.767 1.39729 127.174 0.360734 132.426 0.188853C135.668 0.0636099 141.116 -0.281816 144.183 0.462419C144.835 0.619734 144.658 1.67613 145.199 1.6787C145.798 1.68201 146.13 0.972306 146.411 0.917989C148.339 0.523814 152.743 -0.0384471 154.536 0.811876C154.885 0.973238 155.09 1.8156 155.301 1.82593C155.408 1.83261 155.686 1.28348 156.025 1.24818C158.991 0.939245 161.156 1.46711 163.983 1.97691C169.449 2.95303 175.963 2.94038 181.554 4.73896C182.789 5.13254 183.252 6.92151 183.424 6.94409C183.81 6.99923 184.268 5.97363 185.123 5.89706C187.951 5.6459 191.072 7.69492 193.612 7.87156C194.94 7.97685 196.854 7.10198 198.223 7.21841C199.267 7.28972 201.263 8.54472 201.913 8.12548C202.29 7.86419 202.804 6.78183 203.157 6.74848C203.48 6.72409 203.626 7.53255 203.926 7.68142C205.345 8.37426 205.594 8.99856 206.773 9.75584C208.399 10.7841 214.381 12.4131 212.311 16.9865L212.312 16.9874C212.29 17.0307 212.266 17.0742 212.243 17.1183C212.04 17.5445 211.73 17.9404 211.3 18.2965C210.988 18.7103 210.638 19.124 210.374 19.5893C209.87 20.5337 206.823 26.7168 206.203 26.8557C205.169 26.9293 203.989 24.5009 203.452 24.3677C203.087 24.2752 202.502 24.714 202.079 24.6646C200.66 24.4849 200.181 23.813 198.415 24.9743C198.235 23.9516 198.094 22.9467 197.936 21.9381C197.204 22.1176 196.624 20.6672 196.202 20.5929C195.888 20.5433 195.487 21.1568 195.161 21.0833C194.796 21.0046 194.481 20.0953 193.762 19.9865C192.558 19.7986 191.892 21.5325 191.17 21.5572C190.455 21.5927 189.606 20.2922 188.608 20.686C188.447 20.8518 188.285 21.0175 188.124 21.1836C188.074 21.6482 188.024 22.1128 187.973 22.577C187.496 22.664 187.569 21.7053 187.178 21.5787C186.716 21.4296 186.24 22.2272 185.923 22.1376C185.665 22.0636 185.486 21.2726 185.136 21.227C184.647 21.1629 184.489 22.1931 184.186 22.3149C184.072 22.3601 182.015 22.4339 181.896 22.4167C181.05 22.2538 181.287 20.8536 180.671 20.5818C178.941 19.8315 176.716 20.5291 174.971 20.63C174.173 20.6711 173.385 20.4391 172.642 20.0748C174.525 16.7266 172.301 13.458 172.32 19.2297C171.619 18.2855 170.756 19.6948 169.989 19.3071C169.491 19.055 169.247 18.2174 168.475 18.1203C167.127 17.9561 165.401 19.982 165.535 15.9197C163.841 16.4144 162.628 14.8027 161.677 18.2905C161.257 18.463 160.438 16.239 159.997 15.9062C159.575 15.5824 156.32 14.3419 155.765 14.2579C155.218 14.1646 154.247 14.0442 153.757 14.3297C153.129 14.6819 152.559 18.3583 151.743 13.9844C150.526 14.2804 150.104 14.1409 148.984 13.6031C148.781 13.5056 148.775 12.8635 148.654 12.859C148.404 12.8522 147.968 13.3164 147.521 13.3656C146.807 13.4461 146.416 12.089 146.467 14.156C145.994 14.4958 145.52 14.8374 145.049 15.1813C144.886 14.7818 144.721 14.3828 144.556 13.9838C144.301 14.4175 144.048 14.8518 143.796 15.2867C144.09 12.2949 142.292 14.0708 142.893 15.7825C141.961 15.1715 141.049 14.5676 140.121 13.9721C140.165 10.5687 138.08 13.6414 138.339 15.4839C138.235 15.485 138.13 15.4857 138.026 15.487C137.078 14.6199 136.231 15.3983 135.107 14.8545C133.966 14.3133 134.047 13.9785 133.605 12.44C133.345 12.5465 133.086 12.6538 132.826 12.7616C131.755 17.1373 131.421 9.71303 129.281 13.2028C128.281 10.5879 126.515 12.1871 125.363 13.146C125.228 13.2571 125.286 13.7761 125.112 13.9592C124.688 14.3983 123.392 13.8848 123.649 15.5527C123.167 15.1229 122.706 14.6921 122.227 14.2652C121.934 14.6146 121.641 14.9645 121.35 15.3158C121.426 15.8365 121.502 16.3577 121.578 16.8784C120.656 15.1976 119.689 16.0409 119.099 15.7005C118.981 15.631 118.845 14.9169 118.486 14.7738C118.065 14.6031 117.383 14.9337 116.885 14.7889C116.84 15.6124 116.805 16.4345 116.771 17.2567C116.06 17.823 115.406 15.7859 114.904 15.7102C114.811 15.6966 113.297 16.1376 113.217 16.2016C112.599 16.6911 113.15 18.4165 111.103 18.4485C110.736 18.454 110.322 17.9043 110.007 17.9468C109.445 18.0201 108.099 19.7828 108.272 21.0912C107.238 19.6439 105.602 20.7343 104.958 20.4113C104.763 20.31 104.469 19.3067 103.918 19.2187C103.467 19.1468 102.682 20.2195 102.148 20.2203C101.581 20.2164 101.157 19.4236 100.902 19.43C100.661 19.4372 100.644 20.1772 100.338 20.2599C99.377 20.5061 98.1834 19.6677 97.4093 19.8789C96.2717 20.1875 95.9742 22.4808 95.366 23.6554C95.1036 23.5966 94.7472 23.2391 94.513 23.311C91.592 24.1925 88.254 24.9793 85.2243 25.6852C83.806 26.0065 79.4426 24.7406 82.1514 28.7625C82.0349 29.7036 78.0037 29.3657 77.3495 29.6407C76.7093 29.899 76.5603 30.907 76.0951 31.1369C74.6714 31.8418 73.3791 31.776 71.9419 33.3182C71.5718 33.7195 71.5396 34.8667 71.2664 34.9922C70.9361 35.1411 70.1424 34.4503 69.6909 34.6132C68.6467 34.9914 66.9789 36.2431 65.9578 36.612C65.7704 36.6767 65.2981 35.9574 64.9216 35.8584C63.4522 35.4706 62.4028 36.1711 63.9462 38.4442C63.2953 38.2284 62.8069 38.2877 62.4093 38.49C61.8884 38.7342 61.6234 39.6933 61.1041 40.1289C59.3862 41.4904 55.2717 44.1821 54.3564 46.6215C53.7769 48.1494 54.6505 49.0065 52.3474 49.7485C51.8378 49.9138 51.2685 50.0244 50.6431 50.2452C49.1908 50.7458 46.6572 50.0746 47.8469 52.7628C46.2506 53.3733 45.7311 54.6339 43.2366 53.8586C43.5455 54.3466 43.8542 54.8348 44.1641 55.3221C44.0402 55.4719 43.9168 55.6225 43.7928 55.773C43.3635 55.4482 42.9334 55.1238 42.5038 54.7996C41.4358 55.7135 41.8267 58.5114 41.0172 59.3613C39.6523 60.7838 35.5797 64.0001 33.7869 64.9365C32.8298 65.4348 33.6518 66.2342 31.508 65.1025C31.4814 65.3795 31.4559 65.6564 31.4302 65.9328C31.7236 66.3794 32.0173 66.8258 32.3115 67.2717C31.4618 68.2649 29.8732 68.8625 29.056 69.8136C27.6082 71.4988 26.46 75.0097 24.313 76.0984C23.7597 76.3857 22.4894 76.2407 22.1447 76.6668C21.6493 77.2783 22.8554 78.5833 22.222 79.3873C21.1464 80.7463 17.4504 81.9795 16.5082 83.3693C16.2258 83.7826 16.5905 84.3732 16.4363 84.6707C15.7292 86.0033 14.9649 86.8525 14.8808 88.5632C12.6904 88.5775 10.996 87.2032 9.03229 86.1289C7.50321 85.3755 3.83711 83.7883 2.60577 82.9984C1.73382 82.4511 0.981398 81.2853 0.000917729 80.7087C0.441631 78.7232 1.66674 78.7864 3.84322 78.6213C5.48981 76.502 7.16789 74.3696 8.85375 72.25C9.48015 72.4585 10.1087 72.6657 10.7378 72.8712C10.7387 72.8719 10.7399 72.8724 10.7408 72.8731C11.9578 72.5227 11.0245 71.1737 11.1036 70.521C11.9167 64.1813 20.8821 57.917 25.134 53.808C26.0449 52.9121 28.2392 49.2833 29.5734 49.3191C29.9185 49.3295 30.656 49.9279 30.8498 49.7797C31.9023 47.8178 32.9755 45.8584 34.0737 43.9054C38.2277 41.7165 40.611 37.6111 43.8833 34.3116C47.0842 31.1421 50.2094 28.0106 54.7006 25.1015C61.4336 20.8068 68.2781 17.1069 75.643 14.1581ZM167.808 17.0912C168.242 15.2275 166.37 16.5595 166.845 17.6603C166.952 17.9068 167.696 17.5739 167.808 17.0912ZM89.5277 21.4831C89.7243 21.9907 89.921 22.4984 90.1174 23.0062C90.2539 22.7176 90.3916 22.429 90.5296 22.141C90.3021 21.8738 90.0732 21.6077 89.8442 21.3414C89.7388 21.3885 89.6332 21.4357 89.5277 21.4831Z" fill="#F9F6EC"/>
</svg>
